<svg width="282" height="75" viewBox="0 0 282 75" fill="none" xmlns="http://www.w3.org/2000/svg">
<path fill-rule="evenodd" clip-rule="evenodd" d="M248 73L236 61H11C5.47715 61 1 56.5228 1 51V11C1 5.47715 5.47715 1 11 1H271C276.523 1 281 5.47716 281 11V51C281 56.5228 276.523 61 271 61H248V73Z" fill="white"/>
<path d="M236 61V60.5H236.207L236.354 60.6464L236 61ZM248 73H248.5V74.2071L247.646 73.3536L248 73ZM248 61H247.5V60.5H248V61ZM236.354 60.6464L248.354 72.6464L247.646 73.3536L235.646 61.3536L236.354 60.6464ZM11 60.5H236V61.5H11V60.5ZM1.5 51C1.5 56.2467 5.7533 60.5 11 60.5V61.5C5.20101 61.5 0.5 56.799 0.5 51H1.5ZM1.5 11V51H0.5V11H1.5ZM11 1.5C5.75329 1.5 1.5 5.7533 1.5 11H0.5C0.5 5.201 5.20101 0.5 11 0.5V1.5ZM271 1.5H11V0.5H271V1.5ZM280.5 11C280.5 5.7533 276.247 1.5 271 1.5V0.5C276.799 0.5 281.5 5.20102 281.5 11H280.5ZM280.5 51V11H281.5V51H280.5ZM271 60.5C276.247 60.5 280.5 56.2467 280.5 51H281.5C281.5 56.799 276.799 61.5 271 61.5V60.5ZM248 60.5H271V61.5H248V60.5ZM247.5 73V61H248.5V73H247.5Z" fill="#B00E2F"/>
</svg>